<svg width="1613" height="1018" viewBox="0 0 1613 1018" fill="none" xmlns="http://www.w3.org/2000/svg">
<path fill-rule="evenodd" clip-rule="evenodd" d="M449.931 444.371C373.07 378.497 335.027 320.254 324.303 269.337C364.5 242 407.266 218.239 451.997 198.281C439.928 252.053 539.351 263.697 720.97 284.967L720.971 284.967C779.671 291.841 846.957 299.721 921.84 310.354C1265.85 359.201 1367.31 670.427 1253.18 858.764H806.5H531.195C556.614 850.21 586.147 841.387 620.128 832.313L625.365 830.915C826.177 777.297 905.705 756.063 906.275 732.888C906.648 717.692 873.073 701.662 817.483 675.12C732.327 634.463 595.512 569.141 449.931 444.371ZM531.195 858.764C151.526 986.534 689.846 1054.26 1037.88 998.071C1138.53 981.821 1210.75 928.786 1253.18 858.764H1613C1613 663.743 1528.03 476.71 1376.78 338.809C1225.53 200.908 1020.4 123.436 806.5 123.436C682.452 123.436 561.35 149.493 451.997 198.281C460.61 159.91 525.998 100.085 658.809 0C509.565 28.2749 291.851 115.259 324.303 269.337C293.324 290.405 263.871 313.597 236.218 338.809C84.9703 476.709 3.22976e-05 663.743 0 858.764L531.195 858.764ZM148.929 666.506C151.734 668.673 153.314 671.709 153.669 675.615H178.918C178.847 668.832 177.089 662.866 173.644 657.717C170.2 652.568 165.353 648.573 159.103 645.732C152.888 642.856 145.555 641.418 137.103 641.418C128.829 641.418 121.46 642.838 114.997 645.679C108.534 648.52 103.474 652.479 99.8163 657.557C96.1586 662.636 94.3476 668.548 94.3831 675.295C94.3476 683.57 97.0464 690.139 102.48 695.004C107.913 699.834 115.353 703.332 124.799 705.498L136.198 708.161C140.175 709.085 143.442 710.097 145.999 711.197C148.591 712.263 150.509 713.541 151.752 715.033C152.995 716.489 153.634 718.246 153.669 720.306C153.634 722.508 152.941 724.461 151.592 726.165C150.242 727.87 148.307 729.202 145.786 730.161C143.3 731.119 140.282 731.599 136.73 731.599C132.86 731.599 129.451 730.995 126.503 729.788C123.591 728.58 121.301 726.805 119.632 724.461C117.963 722.117 117.022 719.188 116.809 715.672H91.5599C91.6665 724.195 93.6018 731.244 97.366 736.819C101.13 742.394 106.404 746.549 113.186 749.283C119.969 752.018 127.924 753.385 137.05 753.385C146.141 753.385 153.9 752.071 160.328 749.443C166.791 746.815 171.745 743.033 175.189 738.097C178.634 733.161 180.374 727.249 180.409 720.359C180.374 715.991 179.628 712.05 178.172 708.534C176.716 705.018 174.568 701.911 171.727 699.212C168.921 696.513 165.441 694.188 161.286 692.234C157.167 690.281 152.409 688.719 147.011 687.547L137.636 685.416C135.15 684.884 132.913 684.262 130.924 683.552C128.936 682.842 127.231 682.025 125.811 681.102C124.426 680.143 123.36 679.042 122.615 677.799C121.904 676.556 121.585 675.118 121.656 673.484C121.691 671.496 122.277 669.738 123.414 668.211C124.55 666.648 126.255 665.423 128.527 664.536C130.8 663.648 133.641 663.204 137.05 663.204C142.199 663.204 146.159 664.305 148.929 666.506ZM193.726 642.909V752H220.093V722.437L230.64 709.12L257.806 752H289.34L249.976 691.595L288.648 642.909H257.593L221.532 689.038H220.093V642.909H193.726ZM294.308 752H322.646L329.822 729.095H367.496L374.688 752H403.026L366.218 642.909H331.115L294.308 752ZM361.208 709.067L349.066 670.395H348.214L336.097 709.067H361.208ZM414.771 642.909V752H441.138V714.66H454.643L474.59 752H503.354L480.741 710.498C486.749 707.73 491.393 703.737 494.672 698.52C497.974 693.229 499.625 686.801 499.625 679.237C499.625 671.78 498.01 665.335 494.778 659.901C491.547 654.432 486.948 650.242 480.982 647.33C475.052 644.383 468.003 642.909 459.835 642.909H414.771ZM441.138 693.886H454.135C458.113 693.886 461.433 693.371 464.096 692.341C466.795 691.276 468.837 689.678 470.222 687.547C471.607 685.381 472.299 682.611 472.299 679.237C472.299 675.864 471.607 673.076 470.222 670.874C468.837 668.637 466.795 666.968 464.096 665.867C461.397 664.731 458.077 664.163 454.135 664.163H441.138V693.886ZM509.347 752H537.685L544.861 729.095H582.535L589.727 752H618.065L581.257 642.909H546.154L509.347 752ZM576.247 709.067L564.105 670.395H563.253L551.136 709.067H576.247Z" fill="black"/>
</svg>
