<svg width="155" height="222" viewBox="0 0 155 222" fill="none" xmlns="http://www.w3.org/2000/svg">
<path d="M147.1 42.3C147.1 47.9 145.5 52.4 142.3 55.8C139.3 59 135.8 60.6 131.8 60.6C128 60.6 123.7 59.8 118.9 58.2C119.7 55 120.1 51.9 120.1 48.9C120.1 41.5 116.2 34.7 108.4 28.5C100.8 22.1 90.1 18.9 76.3 18.9C62.7 18.9 51.8 21.8 43.6 27.6C35.4 33.4 31.3 41.2 31.3 51C31.3 60.6 35.5 69 43.9 76.2C52.3 83.2 62.5 89.3 74.5 94.5C86.7 99.7 98.8 105 110.8 110.4C123 115.8 133.3 122.7 141.7 131.1C150.1 139.3 154.3 148.7 154.3 159.3C154.3 177.1 146.5 192 130.9 204C115.5 215.8 97 221.7 75.4 221.7C53.8 221.7 35.9 216.9 21.7 207.3C7.5 197.5 0.400001 185.2 0.400001 170.4C0.400001 164 2.2 158.8 5.8 154.8C9.4 150.6 14.2 148.5 20.2 148.5C26.2 148.5 30.9 150.9 34.3 155.7C29.7 159.9 27.4 165.8 27.4 173.4C27.4 181 31.6 187.8 40 193.8C48.4 199.8 59.9 202.8 74.5 202.8C89.3 202.8 102.1 199 112.9 191.4C123.7 183.8 129.1 174.5 129.1 163.5C129.1 156.5 126 150.1 119.8 144.3C113.8 138.5 106.2 133.7 97 129.9C88 126.1 78.2 121.8 67.6 117C57 112.2 47.1 107.4 37.9 102.6C28.9 97.8 21.3 91.4 15.1 83.4C9.1 75.2 6.1 66.1 6.1 56.1C6.1 39.9 13.2 26.6 27.4 16.2C41.8 5.59999 58.9 0.29999 78.7 0.29999C98.5 0.29999 114.8 4.39999 127.6 12.6C140.6 20.8 147.1 30.7 147.1 42.3Z" fill="black"/>
</svg>
